<?xml version="1.0" standalone="no"?>
<!DOCTYPE svg PUBLIC "-//W3C//DTD SVG 20010904//EN"
 "http://www.w3.org/TR/2001/REC-SVG-20010904/DTD/svg10.dtd">
<svg version="1.0" xmlns="http://www.w3.org/2000/svg"
 width="2568.000000pt" height="428.000000pt" viewBox="0 0 2568.000000 428.000000"
 preserveAspectRatio="xMidYMid meet">

<g transform="translate(0.000000,428.000000) scale(0.100000,-0.100000)"
fill="#ffffff" stroke="none">
<path d="M1707 4235 c-444 -72 -918 -340 -1203 -679 -229 -273 -370 -558 -441
-896 -25 -118 -27 -141 -27 -410 -1 -277 0 -289 27 -413 154 -704 668 -1269
1356 -1491 298 -97 660 -123 948 -71 199 37 292 62 426 116 110 44 143 61 272
134 281 158 573 451 738 740 56 98 135 280 171 394 33 104 82 349 91 456 8 98
-9 337 -35 503 -23 141 -79 316 -154 483 -133 293 -383 589 -680 803 -103 74
-380 212 -524 259 -187 63 -308 79 -612 83 -197 2 -288 0 -353 -11z m611 -281
c713 -106 1289 -650 1444 -1364 20 -92 22 -134 22 -340 1 -208 -2 -247 -22
-340 -151 -690 -665 -1199 -1364 -1352 -91 -20 -131 -22 -343 -22 -260 0 -335
10 -528 70 -524 166 -957 594 -1127 1112 -64 197 -74 273 -74 532 0 206 2 248
22 337 106 486 389 882 814 1142 169 102 422 194 620 225 128 20 405 20 536 0z"/>
<path d="M1775 3320 c-11 -4 -33 -22 -50 -39 l-29 -31 -1 -163 c0 -89 3 -174
8 -189 11 -41 66 -77 136 -90 l61 -12 0 -276 0 -277 -82 -6 c-46 -4 -177 -7
-293 -7 -197 -1 -286 -8 -303 -25 -4 -3 -11 -113 -17 -243 -9 -213 -12 -237
-27 -240 -10 -2 -18 -7 -18 -11 0 -5 -25 -11 -55 -14 -124 -13 -150 -60 -150
-272 0 -130 2 -143 23 -178 44 -70 55 -72 342 -71 275 0 320 7 361 50 23 24
24 32 27 182 2 95 -1 172 -7 194 -15 50 -61 86 -120 94 -26 3 -58 14 -70 24
-22 16 -24 25 -25 118 -1 71 3 105 12 114 10 10 80 15 280 19 298 7 804 0 823
-12 17 -10 28 -94 22 -167 -7 -73 -14 -79 -103 -92 -125 -18 -148 -45 -162
-198 -17 -177 1 -251 74 -306 26 -18 46 -20 232 -24 113 -3 243 -1 291 3 76 6
90 10 120 36 49 44 60 85 60 229 -1 194 -20 228 -151 261 -43 11 -81 24 -85
30 -4 7 -10 110 -14 230 -7 196 -9 222 -27 244 l-19 25 -222 0 c-122 0 -259 3
-304 7 l-83 6 0 278 0 279 28 0 c52 0 127 29 157 60 l30 31 0 174 0 173 -31
39 c-18 21 -44 41 -60 44 -44 10 -556 9 -579 -1z"/>
<path d="M10905 3654 c-402 -62 -641 -237 -746 -549 -32 -97 -33 -104 -33
-265 0 -139 3 -176 21 -235 51 -172 151 -308 313 -426 57 -41 254 -145 400
-210 276 -123 398 -209 446 -314 52 -110 23 -267 -65 -355 -94 -94 -201 -124
-410 -117 -208 6 -364 53 -563 168 -102 58 -138 62 -172 16 -19 -25 -21 -45
-24 -172 -6 -229 13 -268 168 -349 77 -40 221 -88 340 -113 66 -14 131 -18
290 -18 178 0 219 3 310 24 213 47 396 140 516 263 79 81 167 228 202 337 25
80 27 98 27 261 0 195 -9 238 -73 365 -105 211 -247 318 -678 514 -219 100
-289 139 -359 203 -65 59 -85 92 -100 167 -21 103 10 208 81 271 70 61 135 83
262 88 171 7 297 -25 493 -123 185 -93 202 -81 207 148 2 82 1 164 -2 183 -17
89 -136 155 -391 215 -68 16 -131 22 -260 24 -93 2 -183 1 -200 -1z"/>
<path d="M8250 3619 c-40 -12 -67 -34 -85 -69 -21 -41 -905 -2588 -922 -2657
-20 -78 -10 -107 43 -129 30 -13 75 -15 234 -12 195 3 197 3 231 29 39 30 36
23 154 392 l77 237 540 -2 541 -3 97 -295 c53 -162 100 -303 104 -312 17 -39
75 -48 300 -48 130 0 225 4 245 11 62 22 66 70 17 220 -71 222 -878 2534 -897
2570 -36 71 -48 74 -364 76 -170 1 -294 -2 -315 -8z m469 -1152 c105 -324 191
-593 191 -598 0 -5 -157 -9 -395 -9 -217 0 -395 3 -395 6 0 23 396 1202 401
1196 4 -4 93 -272 198 -595z"/>
<path d="M5549 3611 c-56 -11 -100 -42 -123 -86 -21 -40 -21 -41 -23 -1360 -2
-1041 0 -1325 10 -1344 6 -14 28 -34 47 -45 31 -18 55 -21 201 -24 181 -4 268
7 300 39 18 18 19 41 19 569 l0 550 461 2 462 3 19 25 c29 40 44 181 30 286
-12 94 -29 130 -68 144 -15 6 -210 10 -465 10 l-439 0 0 380 0 380 493 2 492
3 23 45 c22 42 23 55 20 195 -4 165 -16 207 -64 225 -29 11 -1339 12 -1395 1z"/>
<path d="M12163 3610 c-48 -19 -58 -62 -58 -235 0 -143 2 -164 21 -195 l20
-35 372 -3 372 -2 0 -1144 c0 -765 3 -1153 10 -1173 19 -54 63 -66 251 -71
181 -4 268 7 300 39 18 18 19 51 19 1184 l0 1165 377 2 377 3 20 35 c19 31 21
52 21 195 0 176 -10 216 -61 235 -32 13 -2010 12 -2041 0z"/>
<path d="M14795 3609 c-106 -23 -156 -78 -175 -190 -6 -42 -10 -502 -10 -1317
0 -1063 2 -1258 14 -1287 23 -54 86 -68 289 -63 138 2 168 6 202 23 l40 20 5
1190 5 1190 31 -90 c17 -49 197 -569 399 -1155 201 -586 374 -1080 382 -1098
10 -20 32 -42 57 -55 38 -21 54 -22 241 -22 234 0 250 5 289 90 12 27 205 558
427 1178 l404 1129 5 -1164 c3 -640 9 -1171 13 -1180 5 -9 25 -25 45 -35 32
-15 63 -18 222 -18 165 0 189 2 225 20 l40 20 0 1340 0 1340 -24 41 c-47 82
-128 104 -391 104 -201 0 -326 -13 -385 -41 -55 -26 -118 -93 -150 -161 -14
-29 -176 -451 -361 -938 -184 -487 -339 -888 -342 -892 -4 -3 -153 395 -331
885 -178 491 -335 915 -348 944 -31 67 -116 146 -181 167 -27 9 -96 21 -153
26 -129 12 -430 11 -484 -1z"/>
<path d="M18719 3611 c-56 -12 -100 -43 -123 -86 l-21 -40 0 -1300 c0 -1259 1
-1301 19 -1338 11 -22 36 -50 57 -64 l37 -25 534 5 c581 4 634 9 850 71 397
116 672 383 796 776 66 205 86 376 79 663 -6 289 -38 450 -128 646 -183 397
-533 622 -1060 682 -112 12 -989 21 -1040 10z m819 -461 c204 -14 290 -36 417
-108 191 -108 317 -294 372 -552 27 -128 24 -487 -5 -622 -73 -334 -252 -535
-547 -616 -82 -22 -114 -24 -357 -29 l-268 -5 0 971 0 971 123 0 c67 0 186 -5
265 -10z"/>
<path d="M21615 3609 c-106 -23 -156 -78 -175 -190 -6 -42 -10 -502 -10 -1317
0 -1063 2 -1258 14 -1287 23 -54 86 -68 289 -63 138 2 168 6 202 23 l40 20 5
1190 5 1190 31 -90 c17 -49 197 -569 399 -1155 201 -586 374 -1080 382 -1098
10 -20 32 -42 57 -55 38 -21 54 -22 241 -22 234 0 250 5 289 90 12 27 205 558
427 1178 l404 1129 5 -1164 c3 -640 9 -1171 13 -1180 5 -9 25 -25 45 -35 32
-15 63 -18 222 -18 165 0 189 2 225 20 l40 20 0 1340 0 1340 -24 41 c-47 82
-128 104 -391 104 -201 0 -326 -13 -385 -41 -55 -26 -118 -93 -150 -161 -14
-29 -176 -451 -361 -938 -184 -487 -339 -888 -342 -892 -4 -3 -153 395 -331
885 -178 491 -335 915 -348 944 -31 67 -116 146 -181 167 -27 9 -96 21 -153
26 -129 12 -430 11 -484 -1z"/>
</g>
</svg>
