<?xml version="1.0" standalone="no"?>
<!DOCTYPE svg PUBLIC "-//W3C//DTD SVG 20010904//EN"
 "http://www.w3.org/TR/2001/REC-SVG-20010904/DTD/svg10.dtd">
<svg version="1.0" xmlns="http://www.w3.org/2000/svg"
 width="376.000000pt" height="376.000000pt" viewBox="0 0 376.000000 376.000000"
 preserveAspectRatio="xMidYMid meet">

<g transform="translate(0.000000,376.000000) scale(0.100000,-0.100000)"
fill="#000000" stroke="none">
<path d="M1595 3455 c-139 -20 -260 -55 -405 -119 -231 -102 -470 -282 -599
-452 -22 -28 -45 -57 -53 -65 -34 -36 -129 -198 -173 -294 -60 -133 -97 -256
-120 -405 -16 -101 -19 -386 -5 -485 12 -82 50 -245 60 -260 4 -5 10 -23 14
-40 8 -32 60 -148 103 -230 88 -166 241 -352 382 -465 24 -19 48 -39 55 -45
40 -36 265 -175 281 -175 3 0 28 -11 57 -23 130 -58 252 -93 417 -118 138 -21
320 -25 420 -8 178 30 302 58 346 79 11 6 38 16 61 24 53 18 198 89 202 99 2
4 8 7 13 7 6 0 56 30 112 68 157 104 343 296 450 464 102 161 190 382 216 548
7 41 17 94 22 117 26 119 0 465 -48 618 -22 71 -52 155 -67 190 -8 17 -26 56
-40 89 -95 210 -322 471 -536 616 -12 8 -32 23 -45 32 -24 19 -174 96 -245
126 -195 83 -335 111 -585 117 -133 3 -220 0 -290 -10z m428 -104 c23 -5 74
-15 112 -21 68 -11 123 -26 215 -57 69 -24 260 -115 260 -125 0 -4 6 -8 14 -8
45 0 364 -284 423 -377 10 -16 20 -30 23 -33 13 -11 89 -139 123 -208 50 -97
73 -158 102 -272 55 -209 65 -380 36 -584 -12 -82 -26 -156 -30 -165 -5 -9
-14 -41 -21 -71 -7 -30 -16 -59 -20 -65 -4 -5 -11 -21 -15 -35 -10 -35 -88
-194 -97 -198 -5 -2 -8 -8 -8 -13 0 -19 -93 -150 -165 -233 -92 -104 -192
-192 -304 -264 -83 -53 -228 -132 -244 -132 -5 0 -23 -6 -40 -14 -54 -24 -157
-53 -272 -77 -154 -31 -393 -31 -550 0 -120 24 -259 68 -345 108 -60 28 -212
112 -220 122 -3 3 -26 20 -51 38 -84 59 -171 140 -257 239 -59 69 -56 64 -116
156 -132 205 -200 400 -231 664 -14 125 -14 152 0 275 14 127 44 279 65 324 5
11 12 31 16 45 15 58 87 205 139 285 129 200 297 367 484 482 55 33 237 123
250 123 6 0 19 4 29 10 32 18 126 43 247 65 130 24 370 33 448 16z"/>
<path d="M1630 2723 c-8 -3 -26 -17 -40 -30 -24 -22 -25 -28 -28 -157 -4 -155
4 -182 65 -212 21 -10 70 -20 108 -23 l70 -6 0 -220 0 -220 -278 -5 c-261 -5
-280 -6 -293 -24 -11 -15 -14 -60 -14 -197 0 -129 -3 -179 -12 -186 -7 -6 -45
-13 -85 -16 -131 -10 -153 -42 -153 -217 0 -107 2 -125 21 -151 40 -57 58 -60
297 -57 291 4 292 5 292 211 0 175 -21 203 -150 214 -41 3 -81 10 -87 16 -18
13 -18 268 -1 285 15 15 964 17 988 2 12 -7 16 -37 18 -134 2 -74 -1 -132 -7
-144 -8 -16 -24 -20 -83 -24 -136 -10 -161 -37 -166 -185 -3 -57 -1 -118 2
-137 7 -39 44 -82 81 -96 34 -13 426 -13 459 0 67 25 90 90 84 238 -5 142 -31
170 -163 180 -38 2 -76 9 -82 14 -10 8 -13 58 -13 187 -1 141 -4 180 -16 196
-14 19 -30 20 -267 25 l-252 5 0 220 0 220 70 6 c85 7 123 22 152 57 20 25 22
38 23 155 0 103 -3 133 -17 155 -38 62 -37 62 -283 61 -124 0 -232 -3 -240 -6z"/>
</g>
</svg>
