<?xml version="1.0" standalone="no"?>
<!DOCTYPE svg PUBLIC "-//W3C//DTD SVG 20010904//EN"
 "http://www.w3.org/TR/2001/REC-SVG-20010904/DTD/svg10.dtd">
<svg version="1.0" xmlns="http://www.w3.org/2000/svg"
 width="10700.000000pt" height="1783.000000pt" viewBox="0 0 10700.000000 1783.000000"
 preserveAspectRatio="xMidYMid meet">

<g transform="translate(0.000000,1783.000000) scale(0.100000,-0.100000)"
fill="#000000" stroke="none">
<path d="M0 8915 l0 -8915 53500 0 53500 0 0 8915 0 8915 -53500 0 -53500 0 0
-8915z m9295 8755 c590 -30 944 -78 1340 -180 548 -140 1047 -338 1755 -696
487 -245 786 -424 1079 -644 357 -269 594 -474 930 -805 671 -661 1174 -1322
1569 -2060 333 -622 665 -1551 796 -2231 130 -674 215 -1917 162 -2359 -58
-475 -227 -1306 -352 -1730 -106 -360 -368 -993 -599 -1450 -614 -1213 -1839
-2510 -3070 -3250 -184 -111 -573 -323 -750 -410 -268 -131 -650 -286 -970
-393 -507 -170 -1356 -344 -1940 -398 -241 -21 -890 -30 -1151 -15 -1246 73
-2317 352 -3377 882 -1053 526 -1978 1262 -2733 2174 -861 1040 -1467 2312
-1748 3670 -79 385 -86 502 -86 1500 1 1119 10 1297 91 1700 225 1119 610
2064 1214 2975 558 842 1145 1470 1910 2045 882 662 1888 1166 2918 1460 451
129 852 204 1201 225 185 11 1554 4 1811 -10z m37212 -2450 c443 -16 614 -38
950 -120 903 -220 1371 -464 1499 -780 24 -58 27 -85 35 -260 10 -211 -4 -879
-21 -1035 -25 -227 -69 -338 -152 -381 -15 -8 -55 -14 -89 -14 -120 0 -223 38
-628 234 -632 307 -983 424 -1446 482 -169 21 -604 24 -790 5 -153 -16 -342
-53 -437 -87 -237 -85 -481 -266 -606 -451 -190 -281 -248 -639 -162 -1008 53
-226 132 -365 312 -542 148 -147 246 -227 398 -327 252 -167 499 -291 1380
-697 312 -143 904 -440 1090 -547 636 -364 994 -661 1280 -1062 104 -146 184
-285 296 -515 202 -414 243 -578 265 -1054 13 -264 6 -920 -11 -1071 -51 -455
-369 -1124 -775 -1630 -477 -593 -1282 -1043 -2282 -1274 -377 -88 -481 -97
-1153 -103 -1042 -10 -1271 17 -1960 224 -342 103 -574 192 -820 315 -342 170
-523 316 -607 488 -89 181 -108 324 -106 795 1 395 15 672 39 762 26 101 110
206 192 240 54 22 149 18 237 -12 91 -30 203 -86 440 -218 665 -371 1212 -555
1855 -622 337 -36 852 -38 1105 -5 435 57 722 190 993 459 375 373 497 1024
278 1487 -66 140 -138 238 -270 370 -172 172 -347 299 -653 475 -186 107 -605
315 -928 460 -514 231 -1230 600 -1547 796 -200 123 -500 371 -677 560 -99
104 -248 286 -323 393 -231 330 -436 818 -488 1159 -18 126 -30 402 -30 746 0
553 15 694 107 980 178 553 407 953 748 1304 435 448 1005 758 1746 951 168
43 512 114 624 129 96 12 772 13 1092 1z m-9882 -130 c276 -21 390 -53 470
-134 90 -91 87 -83 482 -1196 890 -2508 2930 -8371 3298 -9475 234 -703 259
-902 126 -1035 -93 -93 -174 -106 -746 -119 -402 -10 -1096 1 -1250 19 -205
23 -321 63 -375 128 -30 36 -178 473 -738 2183 l-127 386 -350 7 c-192 4
-1207 8 -2255 9 l-1905 2 -218 -675 c-482 -1490 -564 -1729 -631 -1831 -28
-41 -112 -113 -183 -155 -24 -14 -77 -32 -120 -40 -110 -19 -788 -37 -1228
-31 -392 5 -445 11 -564 71 -210 107 -221 255 -57 749 391 1173 2414 7015
3371 9732 270 767 374 1053 404 1115 42 88 140 183 235 230 102 51 153 60 395
70 264 11 1791 4 1966 -10z m-8348 -30 c319 -6 605 -15 635 -20 140 -26 216
-144 252 -392 36 -246 51 -1043 22 -1179 -9 -40 -43 -124 -90 -216 l-75 -151
-1043 -6 c-574 -3 -1496 -9 -2050 -12 l-1008 -6 0 -1583 0 -1583 1703 -5
c1810 -5 2010 -9 2093 -48 91 -43 160 -147 200 -306 47 -186 68 -377 68 -633
1 -244 -11 -385 -45 -555 -35 -172 -68 -248 -157 -363 l-18 -23 -1190 -9
c-654 -5 -1519 -9 -1921 -10 l-733 0 -1 -1667 c0 -1767 -10 -2716 -29 -2848
-15 -106 -33 -140 -94 -181 -160 -106 -470 -141 -1156 -130 -744 11 -839 30
-1011 196 -47 46 -70 77 -78 105 -33 122 -36 492 -34 5085 1 5214 8 5874 58
6074 37 147 165 291 330 374 113 57 179 72 350 84 351 22 3827 28 5022 8z
m29203 10 c696 -6 1362 -14 1481 -19 192 -7 222 -11 262 -30 98 -48 153 -140
182 -309 46 -260 45 -1163 0 -1336 -9 -33 -43 -108 -77 -167 l-61 -107 -801
-6 c-440 -3 -1146 -9 -1567 -12 l-766 -6 -7 -4377 c-7 -4198 -13 -5075 -36
-5261 -14 -103 -29 -137 -80 -173 -148 -105 -478 -144 -1115 -134 -802 14
-1028 62 -1119 240 -26 51 -30 70 -37 199 -19 327 -29 2170 -29 5729 l0 3777
-777 6 c-428 4 -1126 10 -1552 14 l-773 7 -55 95 c-73 125 -90 176 -103 306
-13 140 -13 859 0 1031 23 295 74 423 195 485 35 18 68 22 300 30 668 23 4496
34 6535 18z m16081 0 c578 -29 845 -106 1012 -290 29 -32 85 -113 125 -180
l72 -121 0 -5585 0 -5585 -122 -59 c-197 -94 -179 -92 -883 -97 -871 -6 -960
4 -1129 134 -92 71 -85 25 -96 583 -16 777 -29 2318 -40 4850 -7 1284 -15
2799 -18 3367 l-7 1032 -734 -2052 c-1219 -3405 -1799 -5020 -2288 -6362 -350
-961 -423 -1155 -470 -1251 -101 -207 -206 -267 -508 -293 -153 -14 -1279 -14
-1405 -1 -146 16 -232 49 -348 134 -99 73 -140 138 -211 338 -160 444 -774
2207 -1251 3593 -278 806 -1270 3680 -1776 5142 -158 458 -289 831 -292 828
-5 -4 -41 -7954 -42 -9156 l0 -725 -127 -62 c-202 -98 -282 -109 -928 -118
-701 -11 -941 23 -1083 151 -68 61 -90 119 -102 271 -23 296 -30 1328 -30
4859 0 3523 9 5296 30 5685 16 301 89 512 235 677 52 59 179 146 271 186 86
38 236 76 345 88 148 16 1228 23 1532 10 549 -24 923 -84 1112 -176 235 -115
516 -391 631 -617 59 -117 504 -1317 1468 -3963 734 -2015 1262 -3434 1353
-3635 l25 -55 15 35 c54 124 675 1741 1181 3075 807 2124 1443 3785 1651 4308
123 310 216 461 396 641 245 247 440 322 962 371 344 32 1078 45 1474 25z
m28599 -10 c263 -24 448 -59 568 -106 176 -71 269 -156 385 -350 l77 -131 0
-5580 0 -5579 -127 -62 c-200 -97 -172 -94 -886 -99 -782 -6 -896 3 -1042 80
-32 18 -84 55 -113 82 l-54 50 -9 345 c-19 785 -42 3882 -55 7540 -6 1500 -10
1869 -20 1845 -6 -16 -375 -1045 -819 -2285 -1438 -4019 -2241 -6245 -2560
-7100 -172 -461 -236 -517 -635 -550 -90 -8 -347 -10 -775 -8 -718 5 -713 5
-853 78 -88 45 -177 120 -223 186 -16 24 -57 120 -90 212 -162 449 -786 2242
-1249 3587 -241 701 -815 2364 -1689 4895 -205 591 -375 1082 -379 1090 -10
21 -9 121 -27 -4530 -8 -2285 -18 -4427 -21 -4759 l-6 -603 -123 -59 c-195
-95 -284 -106 -925 -115 -563 -9 -786 9 -962 76 -71 26 -158 103 -186 163 -55
117 -61 470 -68 3872 -6 2858 6 6005 26 6670 9 282 13 333 34 428 80 348 252
547 564 650 139 46 193 55 452 68 258 14 1366 6 1575 -11 344 -27 681 -83 810
-135 243 -98 542 -368 683 -617 56 -100 432 -1111 1367 -3678 686 -1883 1145
-3124 1355 -3660 50 -129 101 -259 112 -288 12 -29 25 -49 29 -45 17 18 497
1262 1169 3033 1112 2928 1709 4479 1777 4614 130 260 377 518 602 631 171 86
521 142 1028 165 234 11 1136 4 1283 -10z m-20870 -19 c867 -21 1033 -32 1420
-92 1338 -208 2383 -699 3140 -1475 452 -463 777 -982 1045 -1668 297 -760
396 -1507 382 -2880 -6 -517 -15 -699 -52 -996 -98 -776 -356 -1599 -688
-2192 -259 -462 -524 -801 -907 -1161 -495 -465 -1173 -849 -1890 -1070 -436
-134 -755 -207 -1084 -247 -470 -57 -910 -68 -3468 -91 l-1318 -12 -97 64
c-160 106 -285 248 -318 363 -50 176 -54 640 -55 6091 l0 4850 57 110 c129
248 350 394 628 415 147 11 2667 4 3205 -9z"/>
<path d="M8010 16523 c-335 -17 -546 -41 -786 -88 -800 -158 -1732 -511 -2378
-900 -354 -213 -738 -494 -1066 -779 -146 -127 -490 -466 -625 -616 -826 -918
-1394 -2021 -1685 -3275 -94 -409 -101 -488 -107 -1265 -10 -1226 26 -1551
252 -2280 363 -1170 986 -2185 1876 -3055 847 -828 1844 -1424 2954 -1765 627
-192 921 -240 1630 -261 389 -12 1188 -6 1420 11 233 18 475 62 815 151 1662
436 3071 1367 4060 2684 596 794 1024 1706 1263 2695 87 357 113 541 127 883
20 501 6 1531 -25 1777 -47 375 -195 934 -371 1398 -129 340 -324 755 -501
1062 -558 969 -1319 1790 -2239 2413 -851 577 -1827 969 -2829 1136 -374 63
-681 82 -1290 79 -242 -1 -465 -3 -495 -5z m1589 -2673 c183 -9 210 -13 255
-34 81 -38 160 -109 251 -223 l85 -107 0 -722 0 -721 -98 -95 c-57 -55 -124
-109 -163 -131 -160 -90 -336 -141 -523 -153 l-116 -7 0 -1156 0 -1157 253
-18 c363 -25 837 -36 1609 -36 l678 0 54 -72 c30 -40 59 -85 65 -100 32 -84
45 -256 71 -923 29 -736 43 -945 66 -981 16 -27 130 -69 336 -124 495 -134
589 -244 629 -733 16 -202 7 -758 -15 -882 -30 -175 -79 -279 -179 -383 -117
-120 -183 -153 -352 -177 -214 -30 -495 -38 -1165 -32 -855 8 -1042 20 -1158
72 -81 37 -216 178 -271 283 -117 226 -138 545 -75 1117 43 394 116 549 299
634 80 38 187 65 380 96 366 58 388 81 415 414 21 260 -21 591 -82 648 -20 18
-43 23 -158 32 -278 23 -705 32 -1720 38 -1551 8 -2566 -19 -2698 -73 -43 -17
-59 -58 -72 -176 -12 -118 -12 -407 0 -565 11 -138 28 -185 83 -227 70 -53
157 -83 352 -120 249 -48 433 -231 467 -466 16 -109 15 -999 -1 -1191 -15
-182 -28 -218 -110 -300 -175 -174 -367 -199 -1566 -199 -818 0 -994 12 -1133
75 -121 55 -247 226 -290 392 -25 100 -25 919 1 1098 58 404 172 537 507 589
279 44 291 47 322 77 17 15 45 33 64 39 20 7 40 23 48 39 28 54 45 246 71 831
30 670 58 1091 76 1137 6 17 25 27 76 42 159 47 373 59 1277 71 723 9 1021 19
1326 43 l145 12 3 1151 2 1151 -162 33 c-306 61 -434 116 -559 239 -57 58 -80
88 -93 126 -31 94 -40 272 -40 892 l-1 601 65 68 c97 102 198 189 246 213 36
18 69 23 231 30 272 12 1752 12 1992 1z"/>
<path d="M35490 12725 c-74 -182 -474 -1355 -1020 -2995 -463 -1387 -630
-1902 -630 -1939 0 -16 10 -20 68 -25 37 -3 567 -8 1177 -12 1035 -6 1822 3
1983 23 l54 6 -6 31 c-30 151 -1520 4726 -1596 4901 l-18 40 -12 -30z"/>
<path d="M79792 9118 l3 -4042 175 2 c904 13 1733 35 1945 53 227 19 431 63
688 150 1093 367 1770 1175 2061 2454 71 312 106 799 106 1459 0 673 -29 1010
-115 1350 -79 314 -173 572 -297 821 -176 352 -334 573 -597 836 -247 247
-476 409 -816 577 -249 124 -451 194 -714 247 -414 84 -1182 135 -2024 135
l-417 0 2 -4042z"/>
</g>
</svg>
